<svg width="17" height="17" viewBox="0 0 17 17" fill="none" xmlns="http://www.w3.org/2000/svg">
<g clip-path="url(#clip0_1515_2834)">
<path d="M0.500019 5.08365C0.499512 4.99591 0.516328 4.90894 0.549504 4.82771C0.582681 4.74649 0.631565 4.67261 0.693353 4.61031C0.755328 4.54783 0.829062 4.49823 0.910301 4.46439C0.99154 4.43054 1.07868 4.41312 1.16669 4.41312C1.25469 4.41312 1.34183 4.43054 1.42307 4.46439C1.50431 4.49823 1.57804 4.54783 1.64002 4.61031L7.08668 10.057C7.46169 10.4315 7.97002 10.6419 8.50002 10.6419C9.03002 10.6419 9.53835 10.4315 9.91335 10.057L15.36 4.61032C15.4856 4.48478 15.6558 4.41425 15.8334 4.41425C16.0109 4.41425 16.1811 4.48478 16.3067 4.61032C16.4322 4.73585 16.5027 4.90611 16.5027 5.08365C16.5027 5.26118 16.4322 5.43145 16.3067 5.55698L10.86 11.0036C10.5504 11.3141 10.1825 11.5604 9.77758 11.7284C9.37261 11.8964 8.93847 11.9829 8.50002 11.9829C8.06157 11.9829 7.62743 11.8964 7.22246 11.7284C6.81749 11.5604 6.44966 11.3141 6.14002 11.0036L0.693353 5.55698C0.631565 5.49469 0.582681 5.42081 0.549504 5.33959C0.516328 5.25836 0.499512 5.17139 0.500019 5.08365Z" fill="#2D2D2D"/>
</g>
<defs>
<clipPath id="clip0_1515_2834">
<rect width="16" height="16" fill="white" transform="translate(16.5 0.416992) rotate(90)"/>
</clipPath>
</defs>
</svg>
