<svg width="17" height="17" viewBox="0 0 17 17" fill="none" xmlns="http://www.w3.org/2000/svg">
<g clip-path="url(#clip0_1515_2859)">
<path d="M0.500019 11.7503C0.499512 11.8381 0.516328 11.925 0.549504 12.0063C0.582681 12.0875 0.631565 12.1614 0.693353 12.2237C0.755328 12.2862 0.829062 12.3358 0.910301 12.3696C0.99154 12.4034 1.07868 12.4209 1.16669 12.4209C1.25469 12.4209 1.34183 12.4034 1.42307 12.3696C1.50431 12.3358 1.57804 12.2862 1.64002 12.2237L7.08668 6.777C7.46169 6.40247 7.97002 6.1921 8.50002 6.1921C9.03002 6.1921 9.53835 6.40247 9.91335 6.777L15.36 12.2237C15.4856 12.3492 15.6558 12.4197 15.8334 12.4197C16.0109 12.4197 16.1811 12.3492 16.3067 12.2237C16.4322 12.0981 16.5027 11.9279 16.5027 11.7503C16.5027 11.5728 16.4322 11.4025 16.3067 11.277L10.86 5.83034C10.5504 5.51991 10.1825 5.27363 9.77758 5.10559C9.37261 4.93754 8.93847 4.85104 8.50002 4.85104C8.06157 4.85104 7.62743 4.93754 7.22246 5.10559C6.81749 5.27363 6.44966 5.51991 6.14002 5.83034L0.693353 11.277C0.631565 11.3393 0.582681 11.4132 0.549504 11.4944C0.516328 11.5756 0.499512 11.6626 0.500019 11.7503Z" fill="#2D2D2D"/>
</g>
<defs>
<clipPath id="clip0_1515_2859">
<rect width="16" height="16" fill="white" transform="matrix(-4.37114e-08 -1 -1 4.37114e-08 16.5 16.417)"/>
</clipPath>
</defs>
</svg>
